<?xml version="1.0" encoding="UTF-8" standalone="no"?>
<!DOCTYPE svg PUBLIC "-//W3C//DTD SVG 1.1//EN"
 "http://www.w3.org/Graphics/SVG/1.1/DTD/svg11.dtd">
<!-- Generated by graphviz version 2.38.0 (20140413.2041)
 -->
<!-- Title: G Pages: 1 -->
<svg width="283pt" height="119pt"
 viewBox="0.00 0.00 283.50 119.00" xmlns="http://www.w3.org/2000/svg" xmlns:xlink="http://www.w3.org/1999/xlink">
<g id="graph0" class="graph" transform="scale(1 1) rotate(0) translate(4 114.997)">
<title>G</title>
<polygon fill="white" stroke="none" points="-4,4 -4,-114.997 279.498,-114.997 279.498,4 -4,4"/>
<!-- 19 -->
<g id="node1" class="node"><title>19</title>
<ellipse fill="red" stroke="black" cx="19.4983" cy="-91.4983" rx="19.4965" ry="19.4965"/>
<text text-anchor="middle" x="19.4983" y="-87.7983" font-family="Times,serif" font-size="14.00">19</text>
</g>
<!-- 63 -->
<g id="node2" class="node"><title>63</title>
<ellipse fill="red" stroke="black" cx="76.4983" cy="-91.4983" rx="19.4965" ry="19.4965"/>
<text text-anchor="middle" x="76.4983" y="-87.7983" font-family="Times,serif" font-size="14.00">63</text>
</g>
<!-- 32 -->
<g id="node3" class="node"><title>32</title>
<ellipse fill="none" stroke="black" cx="140.498" cy="-91.4983" rx="27" ry="18"/>
<text text-anchor="middle" x="140.498" y="-87.7983" font-family="Times,serif" font-size="14.00">32</text>
</g>
<!-- 40 -->
<g id="node4" class="node"><title>40</title>
<ellipse fill="none" stroke="black" cx="104.498" cy="-18" rx="27" ry="18"/>
<text text-anchor="middle" x="104.498" y="-14.3" font-family="Times,serif" font-size="14.00">40</text>
</g>
<!-- 32&#45;&gt;40 -->
<g id="edge1" class="edge"><title>32&#45;&gt;40</title>
<path fill="none" stroke="black" d="M132.329,-74.2742C127.927,-65.5318 122.394,-54.5422 117.423,-44.6696"/>
<polygon fill="black" stroke="black" points="120.508,-43.0137 112.885,-35.656 114.256,-46.1618 120.508,-43.0137"/>
</g>
<!-- 0 -->
<g id="node5" class="node"><title>0</title>
<ellipse fill="none" stroke="black" cx="176.498" cy="-18" rx="27" ry="18"/>
<text text-anchor="middle" x="176.498" y="-14.3" font-family="Times,serif" font-size="14.00">0</text>
</g>
<!-- 32&#45;&gt;0 -->
<g id="edge2" class="edge"><title>32&#45;&gt;0</title>
<path fill="none" stroke="black" d="M148.667,-74.2742C153.069,-65.5318 158.602,-54.5422 163.573,-44.6696"/>
<polygon fill="black" stroke="black" points="166.741,-46.1618 168.112,-35.656 160.488,-43.0137 166.741,-46.1618"/>
</g>
<!-- 16 -->
<g id="node6" class="node"><title>16</title>
<ellipse fill="none" stroke="black" cx="212.498" cy="-91.4983" rx="27" ry="18"/>
<text text-anchor="middle" x="212.498" y="-87.7983" font-family="Times,serif" font-size="14.00">16</text>
</g>
<!-- 16&#45;&gt;0 -->
<g id="edge4" class="edge"><title>16&#45;&gt;0</title>
<path fill="none" stroke="black" d="M204.329,-74.2742C199.927,-65.5318 194.394,-54.5422 189.423,-44.6696"/>
<polygon fill="black" stroke="black" points="192.508,-43.0137 184.885,-35.656 186.256,-46.1618 192.508,-43.0137"/>
</g>
<!-- 17 -->
<g id="node7" class="node"><title>17</title>
<ellipse fill="none" stroke="black" cx="248.498" cy="-18" rx="27" ry="18"/>
<text text-anchor="middle" x="248.498" y="-14.3" font-family="Times,serif" font-size="14.00">17</text>
</g>
<!-- 16&#45;&gt;17 -->
<g id="edge3" class="edge"><title>16&#45;&gt;17</title>
<path fill="none" stroke="black" d="M220.667,-74.2742C225.069,-65.5318 230.602,-54.5422 235.573,-44.6696"/>
<polygon fill="black" stroke="black" points="238.741,-46.1618 240.112,-35.656 232.488,-43.0137 238.741,-46.1618"/>
</g>
</g>
</svg>
